<?xml version="1.0" encoding="UTF-8" standalone="no"?>
<!-- Created with Inkscape (http://www.inkscape.org/) -->

<svg
   xmlns:dc="http://purl.org/dc/elements/1.1/"
   xmlns:cc="http://creativecommons.org/ns#"
   xmlns:rdf="http://www.w3.org/1999/02/22-rdf-syntax-ns#"
   xmlns:svg="http://www.w3.org/2000/svg"
   xmlns="http://www.w3.org/2000/svg"
   xmlns:sodipodi="http://sodipodi.sourceforge.net/DTD/sodipodi-0.dtd"
   xmlns:inkscape="http://www.inkscape.org/namespaces/inkscape"
   width="64px"
   height="64px"
   id="svg3087"
   version="1.1"
   inkscape:version="0.48.4 r9939"
   sodipodi:docname="ffmpegGUIta.svg">
  <defs
     id="defs3089" />
  <sodipodi:namedview
     id="base"
     pagecolor="#ffffff"
     bordercolor="#666666"
     borderopacity="1.0"
     inkscape:pageopacity="0.0"
     inkscape:pageshadow="2"
     inkscape:zoom="7.7781746"
     inkscape:cx="66.21207"
     inkscape:cy="27.788663"
     inkscape:current-layer="layer1"
     showgrid="true"
     inkscape:document-units="px"
     inkscape:grid-bbox="true"
     inkscape:window-width="1191"
     inkscape:window-height="696"
     inkscape:window-x="-6"
     inkscape:window-y="-4"
     inkscape:window-maximized="1" />
  <metadata
     id="metadata3092">
    <rdf:RDF>
      <cc:Work
         rdf:about="">
        <dc:format>image/svg+xml</dc:format>
        <dc:type
           rdf:resource="http://purl.org/dc/dcmitype/StillImage" />
        <dc:title />
      </cc:Work>
    </rdf:RDF>
  </metadata>
  <g
     id="layer1"
     inkscape:label="Layer 1"
     inkscape:groupmode="layer">
    <g
       style="font-size:36px;font-style:normal;font-variant:normal;font-weight:bold;font-stretch:normal;text-align:start;line-height:125%;letter-spacing:0px;word-spacing:0px;writing-mode:lr-tb;text-anchor:start;fill:#ff6600;fill-opacity:1;stroke:none;font-family:Dustismo;-inkscape-font-specification:Dustismo Bold"
       id="text3123"
       transform="matrix(1.0462743,0,0,1.0991894,2.7150091,-3.6551209)">
      <path
         d="m 16.74201,30 0,-1.880859 c -1.570326,1.5 -3.468762,2.249999 -5.695313,2.25 C 8.5505967,30.36914 6.47638,29.419922 4.8240409,27.521484 3.2420082,25.705082 2.4509934,23.531256 2.450994,21 l 0,-5.888672 c -6e-7,-2.531232 0.7910142,-4.705058 2.3730469,-6.5214842 1.6523391,-1.8984142 3.7265558,-2.847632 6.2226561,-2.8476563 2.589832,2.43e-5 4.699205,0.9902576 6.328125,2.9707031 1.523421,1.8398634 2.285139,4.0840014 2.285156,6.7324224 l -2.917968,0 c -1.5e-5,-1.921859 -0.457046,-3.498029 -1.371094,-4.728516 -1.019544,-1.382792 -2.460949,-2.0741975 -4.324219,-2.0742189 -1.6875074,2.14e-5 -3.0703185,0.6211145 -4.1484374,1.8632809 -1.031254,1.171894 -1.5468785,2.613299 -1.546875,4.324219 l 0,6.451172 c -3.5e-6,1.722663 0.515621,3.169927 1.546875,4.341797 1.0664001,1.230472 2.4492113,1.845706 4.1484374,1.845703 1.628896,3e-6 2.98241,-0.591794 4.060547,-1.775391 1.031236,-1.136713 1.582016,-2.531243 1.652344,-4.183593 l -4.921875,0 0,-1.669922 0.01758,-1.212891 6.503906,0 c 0.257796,1.1e-5 0.533186,0.152355 0.826172,0.457031 0.30467,0.29298 0.457013,0.56837 0.457031,0.826172 l 0,10.089844 -2.90039,0"
         id="path3003"
         inkscape:connector-curvature="0" />
      <path
         d="m 26.02326,6.1464844 0,15.1699216 c -4e-6,1.652351 0.51562,3.076178 1.546875,4.271485 1.078118,1.253909 2.431633,1.880862 4.060547,1.880859 1.664051,3e-6 3.029284,-0.632809 4.095703,-1.898438 1.019516,-1.183588 1.529282,-2.624992 1.529297,-4.324218 l 0,-15.0996096 2.917968,0 0,14.8535156 c -1.8e-5,2.4961 -0.791032,4.658207 -2.373047,6.486328 -1.652357,1.921876 -3.708996,2.882812 -6.169921,2.882813 -2.460945,-10e-7 -4.511724,-0.960937 -6.152344,-2.882813 C 23.908024,25.658207 23.122868,23.4961 23.122869,21 l 0,-14.8535156 2.900391,0"
         id="path3005"
         inkscape:connector-curvature="0" />
      <path
         d="m 43.583807,27.099609 2.935546,0 0,-18.0703121 -2.935546,0 0,-2.8828125 8.876953,0 0,2.8828125 -3.00586,0 0,18.0703121 3.00586,0 0,2.900391 -8.876953,0 0,-2.900391"
         id="path3007"
         inkscape:connector-curvature="0" />
    </g>
    <g
       style="font-size:28px;font-style:normal;font-variant:normal;font-weight:normal;font-stretch:normal;text-align:start;line-height:125%;letter-spacing:0px;word-spacing:0px;writing-mode:lr-tb;text-anchor:start;fill:#ff6600;fill-opacity:1;stroke:none;font-family:DejaVu Sans Mono;-inkscape-font-specification:DejaVu Sans Mono"
       id="text3127"
       transform="translate(1.1570838,0)">
      <path
         d="m 6.8479681,33.328033 0,4.347657 5.7148439,0 0,1.955078 -5.7148439,0 0,8.3125 c -8.4e-6,1.130212 0.2141841,1.918623 0.6425781,2.365234 0.428376,0.446617 1.1757711,0.669924 2.2421875,0.669922 l 2.8300783,0 0,2.009766 -3.076172,0 c -1.8867279,0 -3.2174558,-0.378255 -3.9921875,-1.134766 C 4.7197066,51.096916 4.3323372,49.793531 4.3323431,47.943268 l 0,-8.3125 -4.08789062,0 0,-1.955078 4.08789062,0 0,-4.347657 2.515625,0"
         id="path3010"
         inkscape:connector-curvature="0" />
      <path
         d="m 24.894843,45.290924 -0.833984,0 c -1.467455,8e-6 -2.574876,0.259773 -3.322266,0.779297 -0.738286,0.510423 -1.107426,1.276047 -1.107422,2.296875 -4e-6,0.920577 0.27799,1.636071 0.833985,2.146484 0.555983,0.510419 1.326165,0.765627 2.310546,0.765625 1.385408,2e-6 2.4746,-0.478513 3.267579,-1.435547 0.792957,-0.966141 1.193998,-2.296869 1.203125,-3.992187 l 0,-0.560547 -2.351563,0 m 4.880859,-1.039062 0,8.736328 -2.529296,0 0,-2.269532 c -0.537772,0.91146 -1.216808,1.585939 -2.03711,2.023438 -0.811207,0.428385 -1.800138,0.642578 -2.966797,0.642578 -1.558599,0 -2.802738,-0.4375 -3.732422,-1.3125 -0.929689,-0.884113 -1.394533,-2.06445 -1.394531,-3.541016 -2e-6,-1.70442 0.569659,-2.99869 1.708985,-3.882812 1.148432,-0.884105 2.830071,-1.326162 5.044921,-1.326172 l 3.376954,0 0,-0.396484 c -0.0091,-1.221343 -0.319022,-2.105457 -0.929688,-2.652344 -0.610687,-0.555976 -1.585947,-0.833971 -2.925781,-0.833984 -0.856778,1.3e-5 -1.722663,0.12306 -2.597656,0.36914 -0.875005,0.246107 -1.727218,0.606133 -2.556641,1.080078 l 0,-2.515625 c 0.929684,-0.355453 1.818355,-0.619776 2.666016,-0.792968 0.856764,-0.182277 1.68619,-0.273422 2.488281,-0.273438 1.266918,1.6e-5 2.346995,0.186865 3.240234,0.560547 0.902332,0.373713 1.631498,0.934259 2.1875,1.681641 0.346341,0.455742 0.592434,1.020845 0.738281,1.695312 0.145819,0.665376 0.218736,1.667979 0.21875,3.007813"
         id="path3012"
         inkscape:connector-curvature="0" />
    </g>
    <g
       style="font-size:36px;font-style:italic;font-variant:normal;font-weight:bold;font-stretch:normal;text-align:start;line-height:125%;letter-spacing:0px;word-spacing:0px;writing-mode:lr-tb;text-anchor:start;fill:#008000;fill-opacity:1;stroke:none;font-family:URW Chancery L;-inkscape-font-specification:URW Chancery L Bold Italic"
       id="text2998"
       transform="translate(2.8284271,-0.64282435)">
      <path
         d="m 41.145454,43.858908 c 0.108,0 0.324,0 0.72,0.036 l 1.476,-1.152 c -1.871998,-0.036 -1.872,-0.036 -2.268,-0.036 -0.432,0 -0.432002,0 -2.124,0.036 2.339998,-9.143991 2.880002,-10.26 5.004,-10.26 0.611999,0 1.080001,0.072 2.412,0.288 l 1.656,-1.944 c -0.719999,-0.18 -1.008001,-0.216 -1.728,-0.216 -2.159998,0 -3.672002,0.792002 -6.084,3.132 -2.015998,1.943998 -2.484001,3.024006 -3.888,9 -0.36,-0.036 -0.54,-0.036 -0.72,-0.036 l -1.764,0.072 c -0.072,0 -0.252,0 -0.54,-0.036 -0.216,0.144 -0.432,0.288 -0.504,0.324 l -0.792,0.432 c -0.144,0.072 -0.432,0.216 -0.72,0.396 l 0.9,0 c 0,0 2.52,0.036 2.52,0.036 0.216,0 0.612001,0 1.332,-0.036 -0.575999,2.195998 -0.792001,3.168003 -1.476,6.3 -2.159998,9.89999 -2.988003,11.52 -6.048,11.52 -0.503999,0 -0.936001,-0.036 -1.908,-0.18 -0.36,0.54 -0.468,0.72 -0.72,1.044 -0.288,0.396 -0.612,0.792 -0.9,1.224 0.791999,0.108 1.188001,0.144 1.764,0.144 1.187999,0 2.124001,-0.18 2.7,-0.504 1.043999,-0.575999 2.880001,-2.340001 3.852,-3.6 1.115999,-1.511998 2.412001,-4.608003 3.24,-7.884 1.547998,-5.867994 1.944,-7.344001 2.124,-8.064 0.324,0.036 0.468,0.036 0.612,0.036 l 1.872,-0.072"
         id="path3015"
         inkscape:connector-curvature="0" />
      <path
         d="m 52.676704,43.858908 c 0.108,0 0.324,0 0.72,0.036 l 1.476,-1.152 c -1.871998,-0.036 -1.872,-0.036 -2.268,-0.036 -0.432,0 -0.432002,0 -2.124,0.036 2.339998,-9.143991 2.880002,-10.26 5.004,-10.26 0.611999,0 1.080001,0.072 2.412,0.288 l 1.656,-1.944 c -0.719999,-0.18 -1.008001,-0.216 -1.728,-0.216 -2.159998,0 -3.672002,0.792002 -6.084,3.132 -2.015998,1.943998 -2.484001,3.024006 -3.888,9 -0.36,-0.036 -0.54,-0.036 -0.72,-0.036 l -1.764,0.072 c -0.072,0 -0.252,0 -0.54,-0.036 -0.216,0.144 -0.432,0.288 -0.504,0.324 l -0.792,0.432 c -0.144,0.072 -0.432,0.216 -0.72,0.396 l 0.9,0 c 0,0 2.52,0.036 2.52,0.036 0.216,0 0.612001,0 1.332,-0.036 -0.575999,2.195998 -0.792001,3.168003 -1.476,6.3 -2.159998,9.89999 -2.988003,11.52 -6.048,11.52 -0.503999,0 -0.936001,-0.036 -1.908,-0.18 -0.36,0.54 -0.468,0.72 -0.72,1.044 -0.288,0.396 -0.612,0.792 -0.9,1.224 0.791999,0.108 1.188001,0.144 1.764,0.144 1.187999,0 2.124001,-0.18 2.7,-0.504 1.043999,-0.575999 2.880001,-2.340001 3.852,-3.6 1.115999,-1.511998 2.412001,-4.608003 3.24,-7.884 1.547998,-5.867994 1.944,-7.344001 2.124,-8.064 0.324,0.036 0.468,0.036 0.612,0.036 l 1.872,-0.072"
         id="path3017"
         inkscape:connector-curvature="0" />
    </g>
  </g>
</svg>
